<?xml version="1.0" encoding="UTF-8"?>
<svg width="752pt" height="752pt" version="1.1" viewBox="0 0 752 752" xmlns="http://www.w3.org/2000/svg">
 <path d="m591.01 352.32-138.76-138.76c-12.785-12.785-34.098-12.785-46.883 0-12.785 12.785-12.785 34.098 0 46.883l81.93 82.406h-303.09c-18.469 0-33.152 14.68-33.152 33.152 0 18.469 14.68 33.152 33.152 33.152h303.09l-81.93 81.926c-12.785 12.785-12.785 34.098 0 46.883 6.6289 6.6289 15.156 9.9453 23.68 9.9453 8.5234 0 17.051-3.3164 23.68-9.9453l138.29-138.29c6.1562-6.1562 9.9453-14.68 9.9453-23.68 0-8.9961-3.3164-17.52-9.9453-23.676z"/>
</svg>
